<svg width="133" height="133" viewBox="0 0 133 133" fill="none" xmlns="http://www.w3.org/2000/svg">
<path d="M33.2717 55.4167V27.7084M60.9799 55.4167V27.7084M88.6883 55.4167V30.4792" stroke="black" stroke-width="3.5" stroke-linecap="round" stroke-linejoin="round"/>
<path d="M27.7975 94.2084C19.9286 94.2084 15.9941 94.2084 13.5496 91.7739C11.105 89.3389 11.105 85.4204 11.105 77.5834V44.3334C11.105 36.4963 11.105 32.5777 13.5496 30.1431C15.9941 27.7084 19.9286 27.7084 27.7975 27.7084H67.057C86.307 27.7084 95.9318 27.7084 103.298 31.6221C108.722 34.5043 113.242 38.8222 116.359 44.0998C120.592 51.2666 120.992 60.8442 121.794 79.9995C122.01 85.1633 122.118 87.7451 121.109 89.6986C120.367 91.135 119.221 92.3248 117.811 93.1228C115.893 94.2084 113.299 94.2084 108.11 94.2084H105.313M49.8967 94.2084H83.1466" stroke="black" stroke-width="3.5" stroke-linecap="round" stroke-linejoin="round"/>
<path d="M38.8133 105.292C44.9345 105.292 49.8967 100.33 49.8967 94.2083C49.8967 88.087 44.9345 83.125 38.8133 83.125C32.6922 83.125 27.73 88.087 27.73 94.2083C27.73 100.33 32.6922 105.292 38.8133 105.292Z" stroke="black" stroke-width="3.5"/>
<path d="M94.2299 105.292C100.351 105.292 105.313 100.33 105.313 94.2083C105.313 88.087 100.351 83.125 94.2299 83.125C88.1086 83.125 83.1466 88.087 83.1466 94.2083C83.1466 100.33 88.1086 105.292 94.2299 105.292Z" stroke="black" stroke-width="3.5"/>
<path d="M11.0617 55.4216H85.1427C88.6174 55.4216 89.7977 57.4565 92.4577 60.6485C95.5167 63.641 97.5849 65.7397 100.438 66.168C104.428 66.7665 119.191 66.4673 119.191 66.4673" stroke="black" stroke-width="3.5" stroke-linecap="round"/>
</svg>
